<svg width="16" height="16" viewBox="0 0 16 16" fill="none" xmlns="http://www.w3.org/2000/svg">
<path d="M14 10.6667H12.6667V12.6667H10.6667V14.0001H12.6667V16.0001H14V14.0001H16V12.6667H14V10.6667Z" fill="#565656"/>
<path d="M6.50599 5.56595C6.36533 5.40129 6.15466 5.31462 5.93666 5.33595C5.72133 5.35662 5.52866 5.48062 5.42133 5.66929L2.75466 10.336C2.63666 10.5426 2.63733 10.796 2.75666 11.0013C2.87599 11.2066 3.09599 11.3333 3.33333 11.3333H9.99999C10.2607 11.3333 10.4967 11.1813 10.6053 10.9453C10.714 10.7086 10.6753 10.4306 10.506 10.2326L6.50599 5.56595Z" fill="#565656"/>
<path d="M1.33333 1.33333H14V9.33333H15.3333V0.666667C15.3333 0.298667 15.0353 0 14.6667 0H0.666667C0.298 0 0 0.298667 0 0.666667V14.6667C0 15.0347 0.298 15.3333 0.666667 15.3333H9.33333V14H1.33333V1.33333Z" fill="#565656"/>
<path d="M10.6667 5.99992C11.4031 5.99992 12 5.40297 12 4.66659C12 3.93021 11.4031 3.33325 10.6667 3.33325C9.9303 3.33325 9.33334 3.93021 9.33334 4.66659C9.33334 5.40297 9.9303 5.99992 10.6667 5.99992Z" fill="#565656"/>
</svg>
